<svg width="363" height="272" viewBox="0 0 363 272" fill="none" xmlns="http://www.w3.org/2000/svg">
<g clip-path="url(#clip0_43_48)">
<path d="M156.207 237.92C158.717 234.405 162.115 231.833 166.387 230.871C170.112 230.031 173.942 230.174 177.729 230.204L225.607 230.573C229.707 230.604 233.639 234.157 233.448 238.414C233.259 242.636 230.002 246.29 225.607 246.256C211.582 246.148 197.557 246.039 183.532 245.931C180.225 245.906 176.917 245.846 173.61 245.857C172.868 245.859 172.128 245.899 171.387 245.907C171.207 245.909 171.077 245.907 170.985 245.904C170.962 245.911 170.943 245.917 170.913 245.925C170.526 246.031 170.129 246.105 169.74 246.206C169.876 246.21 169.487 246.452 169.292 246.534C169.265 246.587 169.208 246.681 169.113 246.826C168.979 247.076 168.585 247.835 168.569 247.811C167.976 249.31 167.487 250.848 167.105 252.414C166.193 255.868 165.993 256.59 165.862 259.831C165.696 263.924 162.374 267.867 158.021 267.672C153.914 267.488 150.001 264.221 150.179 259.831C150.479 252.433 151.777 244.123 156.207 237.92Z" fill="#E6E6E6"/>
<path d="M222.792 255.615C223.691 250.165 224.573 244.712 225.49 239.265C226.42 233.74 228.32 228.68 232.62 225.054C233.769 224.085 234.96 223.181 236.156 222.279C236.577 221.962 236.997 221.644 237.413 221.32C237.437 221.301 237.453 221.289 237.475 221.272C237.521 221.233 237.575 221.186 237.649 221.124C239.441 219.607 241.173 218.023 242.822 216.339C244.287 214.843 245.688 213.284 247.025 211.661C247.359 211.255 247.689 210.846 248.014 210.434C248.07 210.363 248.372 209.973 248.57 209.719C248.755 209.464 249.093 209.005 249.149 208.924C249.53 208.387 249.903 207.844 250.27 207.296C252.767 203.554 254.93 199.6 256.733 195.478C256.911 195.069 257.086 194.658 257.256 194.244C257.302 194.118 257.361 193.956 257.439 193.74C257.803 192.741 258.165 191.743 258.497 190.732C259.203 188.585 259.81 186.407 260.318 184.196C260.569 183.105 260.795 182.008 260.995 180.905C261.099 180.338 261.196 179.77 261.286 179.201C261.301 179.106 261.389 178.492 261.441 178.145C261.479 177.796 261.551 177.179 261.56 177.083C261.618 176.51 261.669 175.935 261.713 175.36C261.813 174.066 261.881 172.77 261.917 171.472C261.977 169.165 261.936 166.858 261.793 164.551C261.711 163.255 261.595 161.962 261.453 160.672C261.444 160.593 261.437 160.529 261.431 160.473C261.423 160.415 261.413 160.35 261.401 160.268C261.295 159.555 261.184 158.843 261.06 158.133C260.589 155.438 259.978 152.769 259.227 150.138C258.872 148.894 258.486 147.659 258.069 146.435C257.884 145.892 257.692 145.35 257.494 144.811C257.507 144.846 256.915 143.333 256.907 143.282C254.557 137.73 250.714 132.668 250.708 126.361C250.705 122.091 254.317 118 258.55 118.197C260.66 118.277 262.657 119.172 264.12 120.695C265.582 122.218 266.397 124.249 266.391 126.361C266.391 126.457 266.392 126.539 266.392 126.618C266.431 126.751 266.464 126.862 266.494 126.96C266.952 127.956 267.514 128.902 268.017 129.873C269.394 132.531 270.57 135.277 271.687 138.062C273.515 142.598 274.915 147.296 275.867 152.093C277.937 162.603 278.098 173.401 276.341 183.968C273.301 202.5 263.275 220.24 249.336 232.164C248.126 233.199 246.887 234.199 245.636 235.178C245.118 235.584 244.597 235.982 244.072 236.377C243.824 236.564 242.797 237.374 243.249 236.981C242.277 237.811 241.868 238.228 241.619 238.839C241.582 238.98 241.533 239.171 241.466 239.432C241.291 240.121 241.123 240.808 240.985 241.506C239.771 247.609 238.928 253.813 237.915 259.955C237.218 264.175 232.023 266.922 228.269 265.657C223.899 264.185 222.046 260.136 222.792 255.615Z" fill="#E6E6E6"/>
<path d="M155.413 271.442C158.706 271.451 161.868 270.153 164.206 267.833C166.543 265.513 167.865 262.361 167.881 259.068V250.123C177.246 251.171 209.315 250.928 218.507 249.451V258.71C218.532 262 219.857 265.148 222.192 267.466C224.528 269.784 227.685 271.085 230.975 271.085C234.266 271.085 237.423 269.784 239.759 267.466C242.094 265.148 243.419 262 243.443 258.71V240.531C255.894 233.615 266.273 223.501 273.51 211.234C280.747 198.967 284.579 184.991 284.611 170.748C284.611 146.326 273.544 123.545 254.246 108.244C241.699 98.2626 226.454 92.2595 210.469 91.0063C208.3 90.8361 206.117 90.75 203.981 90.75C196.457 90.75 162.51 91.9123 153.993 94.3627L134.571 75.0914C134.286 74.8043 133.921 74.6086 133.524 74.5295C133.127 74.4503 132.715 74.4913 132.341 74.647C131.965 74.7969 131.642 75.0571 131.416 75.3935C131.19 75.73 131.071 76.1269 131.075 76.5323V79.5963L127.293 75.851C127.008 75.5635 126.644 75.3676 126.247 75.2883C125.85 75.209 125.438 75.25 125.065 75.4059C124.688 75.5556 124.365 75.8159 124.139 76.1525C123.913 76.4891 123.793 76.8862 123.797 77.2918V111.532C114.052 120.318 106.624 131.372 102.172 143.714C97.7205 156.057 96.3822 169.307 98.276 182.291C100.17 195.274 105.237 207.59 113.029 218.147C120.821 228.704 131.096 237.176 142.945 242.811V259.068C142.961 262.361 144.283 265.513 146.62 267.833C148.958 270.153 152.12 271.451 155.413 271.442ZM166.901 249.011V259.068C166.876 262.098 165.655 264.996 163.503 267.13C161.351 269.264 158.444 270.462 155.413 270.462C152.382 270.462 149.474 269.264 147.323 267.13C145.171 264.996 143.95 262.098 143.925 259.068V242.192L143.645 242.06C130.35 235.751 119.064 225.881 111.039 213.545C100.813 197.804 96.5607 178.922 99.0507 160.317C101.541 141.712 110.609 124.613 124.614 112.115L124.777 111.969V77.2918C124.774 77.0811 124.835 76.8744 124.952 76.6995C125.07 76.5246 125.238 76.39 125.435 76.3138C125.63 76.2303 125.846 76.2077 126.054 76.2491C126.262 76.2905 126.453 76.3939 126.602 76.5456L132.055 81.9467V76.5322C132.052 76.3216 132.113 76.1148 132.23 75.94C132.348 75.7651 132.516 75.6305 132.713 75.5542C132.908 75.4709 133.125 75.4486 133.333 75.4902C133.542 75.5319 133.733 75.6356 133.882 75.7878L153.719 95.4717L154.001 95.3834C161.919 92.9051 196.4 91.7302 203.981 91.7302C206.092 91.7302 208.249 91.8154 210.392 91.9836C226.183 93.2215 241.242 99.1517 253.637 109.012C272.699 124.126 283.631 146.628 283.631 170.748C283.599 184.865 279.787 198.715 272.592 210.86C265.397 223.006 255.081 233.003 242.716 239.814L242.463 239.954V258.71C242.438 261.74 241.217 264.638 239.065 266.771C236.913 268.905 234.006 270.102 230.975 270.102C227.945 270.102 225.038 268.905 222.886 266.771C220.734 264.638 219.513 261.74 219.488 258.71V248.278L218.907 248.387C210.646 249.941 175.861 250.186 167.455 249.084L166.901 249.011Z" fill="#3F3D56"/>
<path d="M190.426 19.1914C199.341 19.1948 207.905 22.6672 214.306 28.8736C220.706 35.0799 224.44 43.5332 224.718 52.4442C224.728 52.7922 224.732 53.145 224.732 53.4979C224.732 60.2831 222.72 66.9159 218.951 72.5576C215.181 78.1993 209.823 82.5964 203.554 85.193C197.286 87.7896 190.388 88.469 183.733 87.1452C177.078 85.8215 170.965 82.5541 166.168 77.7563C161.37 72.9584 158.102 66.8456 156.779 60.1908C155.455 53.536 156.134 46.6381 158.731 40.3694C161.327 34.1007 165.725 28.7427 171.366 24.9731C177.008 21.2034 183.641 19.1914 190.426 19.1914ZM190.426 86.8242C199.262 86.815 207.733 83.3009 213.981 77.053C220.229 70.8051 223.743 62.3338 223.752 53.4979C223.752 53.0421 223.742 52.5912 223.723 52.1452C223.457 45.6171 221.279 39.311 217.458 34.011C213.638 28.7111 208.343 24.6511 202.234 22.3359C196.124 20.0208 189.469 19.5526 183.095 20.9896C176.722 22.4265 170.911 25.7053 166.386 30.4182C161.861 35.131 158.821 41.0701 157.645 47.4968C156.468 53.9234 157.206 60.5543 159.768 66.5647C162.329 72.5751 166.601 77.7 172.052 81.302C177.503 84.9041 183.892 86.8244 190.426 86.8242Z" fill="#3F3D56"/>
<path d="M161.509 53.4979C161.509 61.1668 164.555 68.5215 169.978 73.9443C175.401 79.367 182.755 82.4134 190.424 82.4134C198.093 82.4134 205.448 79.367 210.871 73.9443C216.293 68.5215 219.34 61.1668 219.34 53.4979C219.34 52.5814 219.296 51.6797 219.213 50.7877C218.516 43.3864 214.995 36.5379 209.382 31.6641C203.768 26.7902 196.494 24.2656 189.068 24.6144C181.642 24.9632 174.636 28.1586 169.504 33.5371C164.372 38.9156 161.509 46.0639 161.509 53.4979Z" fill="#E6E6E6"/>
<path d="M199.033 55.4191C198.332 54.4975 197.41 53.7677 196.353 53.297C195.048 52.7471 193.701 52.3045 192.324 51.9737V44.1028C194.44 44.4219 196.425 45.3267 198.053 46.715L199.651 43.3089C198.732 42.4902 197.677 41.8384 196.534 41.3828C195.267 40.8697 193.937 40.5285 192.579 40.3683V36.3789H188.879V40.4075C187.45 40.568 186.072 41.0308 184.835 41.7651C183.719 42.426 182.779 43.3475 182.096 44.4508C181.444 45.5275 181.106 46.765 181.121 48.0236C181.057 49.3874 181.452 50.7333 182.243 51.8463C182.971 52.8099 183.932 53.5723 185.036 54.0615C186.362 54.6276 187.732 55.0817 189.134 55.4191V62.9616C186.637 62.7732 184.257 61.8239 182.316 60.2416L180.719 63.6526C181.804 64.5498 183.038 65.2498 184.365 65.7208C185.819 66.2411 187.338 66.5578 188.879 66.6618V70.6169H192.579V66.5883C194.634 66.3637 196.561 65.48 198.073 64.0692C198.738 63.4309 199.264 62.6614 199.617 61.8093C199.969 60.9572 200.141 60.0412 200.121 59.1193C200.183 57.7989 199.8 56.496 199.033 55.4191ZM189.134 51.1405C188.232 50.8672 187.394 50.4174 186.668 49.8173C186.381 49.5614 186.153 49.245 186.003 48.8908C185.852 48.5366 185.781 48.1534 185.796 47.7687C185.769 46.8958 186.09 46.048 186.688 45.4114C187.351 44.7435 188.206 44.2996 189.134 44.142V51.1405ZM194.647 61.5697C194.022 62.211 193.208 62.6351 192.324 62.7803V56.2914C193.169 56.5181 193.959 56.9132 194.647 57.4529C194.908 57.6758 195.115 57.9545 195.254 58.2684C195.392 58.5824 195.458 58.9234 195.446 59.2663C195.48 60.1074 195.195 60.9303 194.647 61.5697Z" fill="#6C63FF"/>
<path d="M281.229 146.248C288.067 145.238 294.607 142.765 300.403 138.999C303.274 137.134 305.932 134.96 308.33 132.516C310.696 130.102 312.959 127.359 314.131 124.145C315.259 121.172 315.201 117.878 313.969 114.947C312.754 112.033 310.433 109.719 307.515 108.514C304.579 107.343 301.033 107.218 298.176 108.5C296.815 109.097 295.637 110.045 294.763 111.247C294.357 111.802 294.056 112.426 293.876 113.089C293.708 113.69 293.693 114.323 293.831 114.932C293.999 115.539 294.294 116.103 294.698 116.587C295.101 117.071 295.604 117.463 296.171 117.736C297.42 118.377 298.773 118.79 300.166 118.955C301.568 119.146 303.582 119.32 304.708 118.195C304.94 117.972 305.123 117.703 305.244 117.405C305.329 117.177 305.358 116.932 305.328 116.691C305.345 116.797 305.26 116.459 305.265 116.473C305.283 116.523 305.36 116.644 305.25 116.457C305.216 116.396 305.178 116.336 305.136 116.279C305.173 116.328 305.255 116.408 305.109 116.27C304.989 116.138 304.833 116.042 304.661 115.993C304.593 115.974 304.524 115.958 304.456 115.939C304.284 115.892 304.629 115.942 304.452 115.936C304.384 115.934 304.315 115.936 304.247 115.933C304.073 115.925 304.418 115.885 304.251 115.927C304.187 115.943 304.123 115.959 304.059 115.979C303.921 116.023 304.157 115.878 304.064 115.986C303.954 116.114 304.179 115.863 304.054 115.986C303.992 116.047 303.933 116.111 303.879 116.179C303.662 116.393 303.371 116.512 303.066 116.512C302.762 116.512 302.47 116.393 302.254 116.179C302.045 115.96 301.928 115.669 301.928 115.367C301.928 115.064 302.045 114.773 302.254 114.554C303.387 113.15 305.624 113.497 306.77 114.684C308.232 116.198 307.653 118.596 306.232 119.917C304.622 121.412 302.343 121.516 300.273 121.265C298.523 121.098 296.818 120.616 295.24 119.843C293.672 119.073 292.445 117.747 291.798 116.124C291.505 115.258 291.4 114.34 291.49 113.43C291.579 112.52 291.86 111.639 292.315 110.847C294.143 107.41 297.928 105.649 301.668 105.344C303.594 105.193 305.531 105.425 307.367 106.028C309.202 106.63 310.9 107.591 312.362 108.854C315.179 111.391 316.914 114.913 317.208 118.693C317.534 122.611 316.014 126.417 313.797 129.58C311.476 132.793 308.707 135.657 305.574 138.084C299.448 142.975 292.262 146.364 284.592 147.98C283.679 148.168 282.762 148.33 281.84 148.464C281.547 148.535 281.237 148.491 280.975 148.342C280.712 148.193 280.516 147.95 280.427 147.661C280.348 147.368 280.388 147.055 280.538 146.79C280.688 146.526 280.937 146.331 281.229 146.248Z" fill="#3F3D56"/>
<path d="M171.749 96.3195C181.767 96.1781 191.754 96.4323 201.71 97.0822C205.112 97.3044 208.057 98.5071 208.057 100.529C208.057 102.219 205.136 104.199 201.71 103.975C191.759 103.325 181.772 103.071 171.749 103.212C163.577 103.327 163.582 96.4347 171.749 96.3195Z" fill="#CCCCCC"/>
<path d="M186.557 102.871C187.64 102.871 213.074 102.83 213.074 99.3171C213.074 95.8041 187.64 95.7637 186.557 95.7637C185.475 95.7637 160.041 95.8041 160.041 99.3171C160.041 102.83 185.475 102.871 186.557 102.871ZM212.08 99.3171C211.384 100.382 202.035 101.891 186.557 101.891C171.08 101.891 161.731 100.382 161.035 99.3171C161.731 98.2522 171.08 96.7439 186.557 96.7439C202.035 96.7439 211.384 98.2522 212.08 99.3171Z" fill="#3F3D56"/>
<path d="M105.862 195.229C100.232 195.073 93.2246 194.877 87.8263 190.934C86.2188 189.711 84.898 188.152 83.9566 186.366C83.0151 184.579 82.4757 182.608 82.3762 180.591C82.266 177.477 83.3912 174.758 85.5446 172.939C88.3641 170.556 92.4814 169.997 96.9184 171.301L92.3213 137.706L95.6959 137.244L101.1 176.739L98.2822 175.446C95.015 173.948 90.5302 173.185 87.7433 175.54C87.059 176.156 86.5258 176.921 86.1853 177.776C85.8449 178.632 85.7062 179.554 85.7801 180.471C85.8627 181.973 86.2677 183.438 86.9675 184.769C87.6673 186.1 88.6456 187.264 89.8356 188.183C94.0367 191.251 99.6221 191.647 105.957 191.824L105.862 195.229Z" fill="#3F3D56"/>
<path d="M115.192 140.604H133.537V144.01H115.192V140.604Z" fill="#3F3D56"/>
<path d="M0.583272 271.671H362.416C362.571 271.671 362.719 271.609 362.828 271.5C362.937 271.391 362.998 271.242 362.998 271.088C362.998 270.933 362.937 270.785 362.828 270.676C362.719 270.567 362.571 270.505 362.416 270.504H0.583272C0.428505 270.504 0.280059 270.566 0.170623 270.675C0.0611865 270.785 -0.000299664 270.933 -0.000299664 271.088C-0.000299664 271.243 0.0611865 271.391 0.170623 271.501C0.280059 271.61 0.428505 271.671 0.583272 271.671Z" fill="#3F3D56"/>
</g>
<defs>
<clipPath id="clip0_43_48">
<rect width="363" height="271.672" fill="white" transform="matrix(-1 0 0 1 363 0)"/>
</clipPath>
</defs>
</svg>
