<svg width="237" height="259" viewBox="0 0 237 259" fill="none" xmlns="http://www.w3.org/2000/svg">
<path d="M83.8956 28.9154C83.8956 36.1864 86.784 43.1597 91.9254 48.3011C97.0668 53.4425 104.04 56.3309 111.311 56.3309C118.582 56.3309 125.555 53.4425 130.697 48.3011C135.838 43.1597 138.727 36.1864 138.727 28.9154C138.727 28.0473 138.685 27.1923 138.606 26.3451C137.945 19.3281 134.607 12.835 129.285 8.21419C123.963 3.5932 117.065 1.19954 110.025 1.53022C102.984 1.8609 96.3415 4.89052 91.4759 9.99002C86.6103 15.0895 83.8956 21.8671 83.8956 28.9154Z" stroke="#6C63FF" stroke-width="3"/>
<path d="M119.92 30.8365C119.219 29.915 118.297 29.1852 117.239 28.7144C115.935 28.1646 114.587 27.722 113.211 27.3912V19.5203C115.327 19.8393 117.311 20.7442 118.94 22.1325L120.538 18.7263C119.619 17.9077 118.564 17.2559 117.421 16.8003C116.153 16.2872 114.823 15.946 113.466 15.7858V11.7964H109.765V15.825C108.337 15.9855 106.958 16.4483 105.722 17.1826C104.606 17.8435 103.665 18.765 102.982 19.8683C102.331 20.945 101.993 22.1825 102.007 23.441C101.944 24.8049 102.339 26.1508 103.13 27.2638C103.857 28.2274 104.819 28.9897 105.923 29.479C107.248 30.0451 108.619 30.4992 110.02 30.8365V38.3791C107.523 38.1907 105.144 37.2414 103.203 35.6591L101.605 39.0701C102.691 39.9673 103.925 40.6673 105.252 41.1383C106.706 41.6586 108.225 41.9753 109.766 42.0793V46.0343H113.466V42.0058C115.521 41.7812 117.448 40.8975 118.96 39.4867C119.625 38.8484 120.151 38.0788 120.504 37.2268C120.856 36.3747 121.028 35.4587 121.008 34.5368C121.07 33.2164 120.687 31.9135 119.92 30.8365ZM110.02 26.558C109.119 26.2847 108.281 25.8349 107.555 25.2348C107.267 24.9789 107.04 24.6625 106.889 24.3083C106.738 23.9541 106.668 23.5709 106.683 23.1862C106.656 22.3133 106.977 21.4654 107.575 20.8288C108.237 20.161 109.093 19.7171 110.02 19.5595V26.558ZM115.534 36.9872C114.909 37.6284 114.094 38.0526 113.211 38.1977V31.7089C114.055 31.9355 114.846 32.3306 115.534 32.8704C115.795 33.0932 116.002 33.372 116.14 33.6859C116.279 33.9999 116.344 34.3409 116.333 34.6838C116.367 35.5249 116.081 36.3478 115.534 36.9872Z" fill="#6C63FF"/>
<path d="M200.729 132.558C207.567 131.548 214.107 129.075 219.903 125.309C222.774 123.444 225.432 121.27 227.83 118.826C230.196 116.412 232.459 113.669 233.631 110.455C234.759 107.482 234.701 104.188 233.469 101.256C232.254 98.3424 229.933 96.0291 227.015 94.8237C224.079 93.6531 220.533 93.5278 217.676 94.8099C216.315 95.4066 215.137 96.3548 214.263 97.5573C213.857 98.1116 213.556 98.7359 213.376 99.3991C213.208 100 213.193 100.633 213.331 101.241C213.499 101.849 213.794 102.413 214.198 102.897C214.601 103.381 215.104 103.772 215.671 104.046C216.92 104.687 218.273 105.099 219.666 105.265C221.068 105.456 223.082 105.63 224.208 104.505C224.44 104.282 224.623 104.013 224.744 103.715C224.829 103.487 224.858 103.242 224.828 103.001C224.845 103.107 224.76 102.769 224.765 102.783C224.783 102.832 224.86 102.954 224.75 102.767C224.716 102.706 224.678 102.646 224.636 102.589C224.673 102.637 224.755 102.718 224.609 102.58C224.489 102.448 224.333 102.352 224.161 102.303C224.093 102.284 224.024 102.268 223.956 102.249C223.784 102.202 224.129 102.252 223.952 102.246C223.884 102.244 223.815 102.246 223.747 102.243C223.573 102.235 223.918 102.195 223.751 102.237C223.687 102.253 223.623 102.269 223.559 102.289C223.421 102.333 223.657 102.188 223.564 102.296C223.454 102.423 223.679 102.173 223.554 102.296C223.492 102.357 223.433 102.421 223.379 102.489C223.162 102.703 222.871 102.822 222.566 102.822C222.262 102.822 221.97 102.703 221.754 102.489C221.545 102.27 221.428 101.979 221.428 101.677C221.428 101.374 221.545 101.083 221.754 100.864C222.887 99.46 225.124 99.807 226.27 100.994C227.732 102.507 227.153 104.906 225.732 106.227C224.122 107.722 221.843 107.826 219.773 107.575C218.023 107.408 216.318 106.926 214.74 106.153C213.172 105.382 211.945 104.057 211.298 102.434C211.005 101.568 210.9 100.65 210.99 99.7397C211.079 98.8299 211.36 97.9493 211.815 97.1564C213.643 93.7203 217.428 91.9586 221.168 91.6535C223.094 91.5026 225.031 91.7352 226.867 92.3377C228.702 92.9403 230.4 93.9009 231.862 95.1639C234.679 97.7005 236.414 101.223 236.708 105.003C237.034 108.921 235.514 112.727 233.297 115.89C230.976 119.103 228.207 121.967 225.074 124.394C218.948 129.285 211.762 132.674 204.092 134.29C203.179 134.478 202.262 134.639 201.34 134.774C201.047 134.845 200.737 134.801 200.475 134.652C200.212 134.503 200.016 134.26 199.927 133.971C199.848 133.678 199.888 133.365 200.038 133.1C200.188 132.836 200.437 132.641 200.729 132.558Z" fill="#6C63FF"/>
<path d="M36.0785 125.213H54.4238V128.619H36.0785V125.213Z" fill="#6C63FF"/>
<path d="M46.1566 96.1089V60.6089L53.6562 65.6089V60.6089L75.6562 79.6089C100.156 68.1089 139.656 72.0112 151.656 79.6089C236.156 133.109 197.156 202.442 162.156 228.109C163.323 237.609 162.856 256.609 151.656 256.609C140.456 256.609 138.99 242.609 139.656 235.609H89.1562C89.6562 242.609 87.6562 256.609 75.6562 256.609C63.6562 256.609 62.9898 237.609 64.1566 228.109C-6.24337 178.909 22.8233 119.609 46.1566 96.1089Z" stroke="#6C63FF" stroke-width="3"/>
<path d="M20.3859 152.109C14.5525 150.942 2.78569 150.309 2.38587 157.109C1.56272 171.109 -0.114281 174.109 23.8853 174.109" stroke="#6C63FF" stroke-width="3"/>
<path d="M142.394 83.5572C142.394 83.5572 142.393 83.5598 142.391 83.565C142.392 83.5598 142.393 83.5572 142.394 83.5572ZM142.232 83.4451C142.304 83.5188 142.344 83.5732 142.367 83.6089C142.344 83.6446 142.304 83.6989 142.232 83.7726C142.016 83.9953 141.62 84.2824 140.979 84.6015C139.702 85.237 137.757 85.8518 135.23 86.3837C130.202 87.4423 123.185 88.1089 115.387 88.1089C107.588 88.1089 100.572 87.4423 95.5432 86.3837C93.0166 85.8518 91.0716 85.237 89.7948 84.6015C89.1536 84.2824 88.7578 83.9953 88.5414 83.7726C88.4698 83.6989 88.429 83.6446 88.4063 83.6089C88.429 83.5732 88.4698 83.5188 88.5414 83.4451C88.7578 83.2224 89.1536 82.9354 89.7948 82.6162C91.0716 81.9807 93.0166 81.366 95.5432 80.834C100.572 79.7754 107.588 79.1089 115.387 79.1089C123.185 79.1089 130.202 79.7754 135.23 80.834C137.757 81.366 139.702 81.9807 140.979 82.6162C141.62 82.9354 142.016 83.2224 142.232 83.4451ZM88.3799 83.5572C88.3801 83.5572 88.3812 83.5598 88.3824 83.565C88.3803 83.5598 88.3797 83.5572 88.3799 83.5572ZM88.3799 83.6605C88.3797 83.6605 88.3803 83.6579 88.3824 83.6527C88.3812 83.6579 88.3801 83.6605 88.3799 83.6605ZM142.391 83.6527C142.393 83.658 142.394 83.6605 142.394 83.6605C142.393 83.6605 142.392 83.6579 142.391 83.6527Z" stroke="#6C63FF" stroke-width="3"/>
<path d="M163.887 214.609C207.087 164.209 181.887 119.609 163.887 103.609V119.609C189.487 154.009 174.553 185.942 163.887 197.609V214.609Z" stroke="#6C63FF" stroke-width="3"/>
</svg>
