<svg width="1015" height="357" viewBox="0 0 1015 357" fill="none" xmlns="http://www.w3.org/2000/svg">
<path fill-rule="evenodd" clip-rule="evenodd" d="M4.35088 4.2843C6.74422 6.64026 21.2401 20.3622 36.5655 34.7775L64.4293 60.9864H76.3336H88.2378V83.4933V106H80.2479H72.258V128.87V151.74H80.2479H88.2378V227.61V303.48H112.208H136.177V227.973V152.466H196.828H257.479V227.973V303.48H281.449H305.419V227.61V151.74H313.408H321.398V128.87V106H313.408H305.419V83.4933V60.9864H317.323H329.227L357.091 34.7775C372.416 20.3622 386.912 6.64026 389.305 4.2843L393.656 0H196.828H0L4.35088 4.2843ZM480.471 9.94151C475.157 10.8338 467.231 13.4555 462.707 15.8165C454.888 19.8976 445.937 29.1 442.079 37.0275C437.489 46.4586 436.53 50.9447 436.572 62.8015C436.605 72.221 436.777 73.4712 438.905 79.8632C444.175 95.6942 455.8 107.319 471.231 112.192C486.075 116.879 501.815 115.469 513.794 108.379C518.423 105.639 528.41 95.822 528.41 94.012C528.41 93.4886 525.714 91.6931 522.418 90.0218L516.425 86.9826L511.704 91.5907C506.293 96.8726 501.016 99.6954 494.266 100.919C482.536 103.046 469.262 98.3697 461.585 89.4068C455.115 81.854 452.143 73.3224 452.143 62.3049C452.143 49.86 455.355 41.669 463.345 33.7444C471.499 25.6586 478.98 22.8104 490.611 23.3665C499.089 23.7716 506.364 27.1034 512.365 33.3298L516.491 37.6105L522.811 34.3404L529.129 31.0704L527.538 28.7856C521.445 20.0348 510.202 12.8086 499.205 10.5753C494.037 9.52622 484.803 9.2133 480.471 9.94151ZM580.708 10.4918C561.09 14.6948 547.032 28.0058 542.169 46.9835C535.425 73.3013 545.984 98.9171 567.997 109.645C575.714 113.406 582.233 114.842 591.63 114.851C600.943 114.859 607.167 113.458 615.573 109.46C620.54 107.099 622.895 105.374 627.622 100.636C634.481 93.7594 637.92 88.0042 640.683 78.7741C642.352 73.199 642.647 70.8546 642.69 62.8015C642.751 51.3716 641.58 46.0005 636.945 36.4517C630.972 24.1485 619.463 14.8284 605.767 11.2034C599.71 9.60028 586.606 9.22783 580.708 10.4918ZM954.782 10.4918C948.615 11.8125 944.896 13.184 938.816 16.3778C915.26 28.7529 905.905 61.0685 918.449 86.7605C924.848 99.8588 935.315 108.536 950.06 112.951C958.726 115.547 971.662 115.728 980.415 113.375C988.201 111.28 996.656 106.705 1002.32 101.519L1007.08 97.1594V78.3465V59.5344H983.109H959.14V66.4317V73.3289H975.483H991.826V82.3397V91.3504L989.538 93.2744C984.025 97.9115 973.587 101.611 965.96 101.633C948.564 101.683 933.79 89.6893 929.657 72.1578C928.001 65.1371 928.596 54.3295 930.993 47.788C936.703 32.219 949.407 23.2329 965.699 23.2329C974.989 23.2329 982.921 26.3244 989.828 32.6321C992.036 34.6505 994.063 36.3014 994.324 36.3014C994.586 36.3014 997.404 34.8 1000.59 32.9653L1006.37 29.6292L1003.41 26.0971C997.76 19.348 988.681 13.6414 979.717 11.2019C973.834 9.60173 960.687 9.22711 954.782 10.4918ZM661.878 11.305C661.58 11.6092 661.333 34.6737 661.333 62.5597V113.261L682.216 113.255C693.7 113.252 705.205 112.908 707.784 112.49C734.361 108.18 750.748 88.9487 750.748 62.0755C750.748 37.3556 736.976 19.4322 712.97 12.903C708.111 11.5809 704.784 11.3645 684.94 11.077C672.556 10.8977 662.176 11.0008 661.878 11.305ZM769.561 62.0755V113.261H777.55H785.54V62.0755V10.8904H777.55H769.561V62.0755ZM808.057 62.0508V113.261H815.677H823.296L823.485 74.4957L823.674 35.7308L851.624 74.4957L879.582 113.261H887.034H894.494V62.0755V10.8904H886.874H879.255L879.066 49.1297L878.877 87.3696L851.239 49.3112L823.602 11.2534L815.83 11.0473L808.057 10.8411V62.0508ZM600.238 24.0032C608.855 25.9882 618.019 33.1062 622.314 41.1477C625.207 46.5653 627.197 55.0925 627.182 62.0101C627.137 82.8232 615.29 98.2237 597.158 101.041C582.385 103.337 567.713 96.3201 560.899 83.7003C556.39 75.3502 554.807 62.0675 557.056 51.4595C559.837 38.3467 569.544 27.5985 581.51 24.3822C586.099 23.1487 595.688 22.9541 600.238 24.0032ZM708.38 25.7798C721.81 28.9439 731.369 39.0538 734.274 53.1511C734.906 56.2288 735.422 60.1493 735.415 61.8635C735.393 75.8954 728.1 89.3001 717.423 94.9501C709.883 98.9403 706.803 99.466 690.983 99.466H676.587V62.0755V24.685L690.206 24.6959C699.649 24.7031 705.22 25.0357 708.38 25.7798ZM258.205 82.7673V106H196.828H135.451V82.7673V59.5344H196.828H258.205V82.7673ZM649.654 144.881C619.003 150.429 597.38 169.778 589.657 198.569C587.896 205.136 587.71 207.042 587.71 218.535C587.71 229.949 587.902 231.957 589.606 238.287C591.88 246.734 596.213 256.238 600.576 262.346C604.445 267.762 613.749 276.748 619.205 280.336C638.558 293.066 665.307 296.768 688.782 289.967C714.67 282.468 732.618 264.216 739.598 238.287C741.305 231.957 741.494 229.949 741.494 218.535C741.494 207.042 741.305 205.136 739.548 198.569C736.54 187.37 731.529 177.675 724.207 168.895C717.183 160.475 702.111 150.866 690.555 147.441C678.272 143.799 661.45 142.746 649.654 144.881ZM922.989 144.793C906.108 148.006 893.506 154.296 882.262 165.119C860.893 185.68 854.486 219.627 866.442 248.958C872.725 264.393 886.954 278.929 902.673 285.978C924.921 295.953 952.363 295.714 974.183 285.353C994.041 275.921 1007.08 260.005 1012.88 238.119C1015.37 228.751 1015.72 212.683 1013.66 202.712C1007.65 173.544 987.831 153.255 958.116 145.84C950.373 143.908 930.717 143.322 922.989 144.793ZM436.889 218.482V291.138L466.488 291.121C507.95 291.098 517.571 290.144 531.829 284.637C547.701 278.508 560.986 266.691 568.189 252.295C571.164 246.347 573.865 237.504 574.931 230.217C576.026 222.736 575.442 206.229 573.858 199.836C568.063 176.448 552.907 159.761 529.863 151.394C516.703 146.616 514.941 146.45 474.115 146.124L436.889 145.827V218.482ZM759.392 161.178V176.425H781.938H804.491L804.273 211.819C804.063 246.581 804.034 247.266 802.479 250.166C797.583 259.308 786.782 262.829 777.529 258.302C775.328 257.226 770.752 254.046 767.367 251.236C763.982 248.425 761.04 246.138 760.844 246.152C760.641 246.167 758.135 249.516 755.273 253.593C752.411 257.671 748.736 262.86 747.102 265.125L744.138 269.242L749.622 274.724C759.217 284.312 771.362 291.195 782.497 293.357C788.853 294.591 800.591 293.858 806.605 291.851C823.965 286.058 834.337 275.729 839.407 259.181C841.063 253.757 841.07 253.651 841.296 199.839L841.521 145.932H800.46H759.392V161.178ZM677.488 178.584C700.252 185.675 710.944 215.515 699.206 239.192C689.719 258.323 666.629 265.899 647.074 256.299C633.167 249.471 625.48 236.195 625.419 218.898C625.386 209.577 626.371 204.931 629.937 197.583C638.187 180.584 658.217 172.58 677.488 178.584ZM951.39 178.844C968.488 185.046 978.134 200.942 977.059 221.14C975.817 244.448 960.295 260.16 938.439 260.223C930.478 260.245 925.451 259.088 919.008 255.746C909.936 251.041 902.128 240.5 899.52 229.425C898.198 223.817 898.395 211.923 899.898 206.25C904.002 190.774 915.478 179.864 930.507 177.146C936.267 176.105 946.029 176.899 951.39 178.844ZM508.435 179.7C522.222 182.606 531.97 191.813 536.103 205.829C538.019 212.329 537.907 223.963 535.865 230.514C532.636 240.877 525.975 249.109 517.246 253.526C509.656 257.366 506.823 257.854 489.732 258.264L473.933 258.642V218.623V178.603L488.642 178.615C498.786 178.624 504.928 178.961 508.435 179.7ZM194.286 330.466C191.169 331.346 187.906 334.278 186.57 337.399C185.38 340.178 185.262 346.132 186.34 348.991C189.232 356.657 199.66 359.37 206.267 354.175C210.659 350.722 212.215 342.876 209.626 337.24C207.991 333.681 206.125 331.959 202.505 330.669C199.279 329.519 197.772 329.481 194.286 330.466ZM260.748 330.708C254.935 332.762 251.004 339.511 252.042 345.654C253.444 353.948 262.404 359.128 270.2 356.152C273.078 355.054 277.091 351.471 277.091 350C277.091 349.693 275.799 348.858 274.221 348.147L271.35 346.853L269.08 348.763C266.155 351.224 264.406 351.173 261.781 348.55C260.116 346.885 259.658 345.777 259.658 343.412C259.658 341.046 260.116 339.938 261.781 338.274C264.406 335.65 266.155 335.6 269.08 338.061L271.35 339.97L274.221 338.677C275.799 337.965 277.091 337.007 277.091 336.546C277.091 335.177 272.556 331.326 269.9 330.44C266.699 329.372 264.329 329.442 260.748 330.708ZM290.641 330.676C281.238 334.027 278.626 345.844 285.721 352.936C293.629 360.839 307.56 356.556 309.403 345.654C310.788 337.458 303.77 329.523 295.25 329.653C294.251 329.669 292.177 330.129 290.641 330.676ZM344.391 330.676C334.989 334.027 332.377 345.844 339.472 352.936C347.379 360.839 361.31 356.556 363.153 345.654C364.538 337.458 357.52 329.523 349 329.653C348.001 329.669 345.927 330.129 344.391 330.676ZM465.693 330.676C456.29 334.027 453.678 345.844 460.773 352.936C468.681 360.839 482.612 356.556 484.455 345.654C485.84 337.458 478.822 329.523 470.302 329.653C469.303 329.669 467.229 330.129 465.693 330.676ZM560.733 330.708C554.92 332.762 550.99 339.511 552.028 345.654C553.429 353.948 562.39 359.128 570.186 356.152C573.064 355.054 577.076 351.471 577.076 350C577.076 349.693 575.785 348.858 574.206 348.147L571.336 346.853L569.066 348.763C566.14 351.224 564.391 351.173 561.767 348.55C560.102 346.885 559.643 345.777 559.643 343.412C559.643 341.046 560.102 339.938 561.767 338.274C564.391 335.65 566.14 335.6 569.066 338.061L571.336 339.97L574.206 338.677C575.785 337.965 577.076 337.007 577.076 336.546C577.076 335.177 572.541 331.326 569.886 330.44C566.684 329.372 564.315 329.442 560.733 330.708ZM667.507 330.708C661.697 332.762 657.767 339.511 658.798 345.654C660.2 353.948 669.164 359.128 676.957 356.152C679.841 355.054 683.85 351.471 683.85 350C683.85 349.693 682.558 348.858 680.981 348.147L678.112 346.853L675.839 348.763C672.911 351.224 671.168 351.173 668.539 348.55C666.876 346.885 666.418 345.777 666.418 343.412C666.418 341.046 666.876 339.938 668.539 338.274C671.168 335.65 672.911 335.6 675.839 338.061L678.112 339.97L680.981 338.677C682.558 337.965 683.85 337.007 683.85 336.546C683.85 335.177 679.318 331.326 676.659 330.44C673.456 329.372 671.088 329.442 667.507 330.708ZM919.582 330.705C915.776 332.06 914.142 334.305 914.12 338.204C914.098 342.476 916.742 345.127 922.139 346.256C926.998 347.27 928.248 348.007 927.674 349.51C927.042 351.14 923.04 350.997 919.553 349.22C917.984 348.421 916.633 347.768 916.553 347.768C916.473 347.768 915.667 348.96 914.767 350.418L913.125 353.068L914.73 354.364C915.609 355.078 918.13 356.034 920.338 356.492C927.79 358.039 933.732 355.766 935.221 350.793C936.848 345.364 933.492 341.107 926.795 340.104C923.141 339.556 920.912 338.202 921.667 336.988C922.408 335.782 926.156 335.96 928.8 337.326C931.059 338.494 931.081 338.486 933.063 336.061C935.497 333.082 934.988 332.229 929.868 330.708C925.379 329.377 923.316 329.376 919.582 330.705ZM72.258 343.343V356.48H74.0739C75.8353 356.48 75.8898 356.33 75.8898 351.477V346.475L81.413 346.196C86.5672 345.935 87.0771 345.76 89.0397 343.564C91.9539 340.304 91.9488 336.35 89.0252 333.077C86.9355 330.738 86.8076 330.703 79.5826 330.456L72.258 330.207V343.343ZM97.4989 342.939C94.8019 349.861 92.596 355.739 92.596 356.002C92.596 356.265 93.3775 356.48 94.3327 356.48C95.6815 356.48 96.3302 355.83 97.2323 353.576L98.3952 350.672H104.629H110.863L112.08 353.569C113.076 355.94 113.657 356.467 115.284 356.473L117.271 356.48L115.921 353.032C106.341 328.565 107.22 330.342 104.705 330.348L102.402 330.354L97.4989 342.939ZM123.103 343.343V356.48H124.919C126.683 356.48 126.735 356.335 126.735 351.398V346.316L129.459 346.328C132.038 346.341 132.334 346.595 135.028 351.117C137.917 355.968 138.835 356.795 140.854 356.36C141.748 356.167 141.353 355.07 138.956 351.076C136.665 347.261 136.178 345.953 136.954 345.694C137.518 345.506 138.882 344.451 139.983 343.349C142.822 340.511 142.776 336.33 139.87 333.077C137.78 330.738 137.653 330.703 130.428 330.456L123.103 330.207V343.343ZM147.799 331.757C147.799 332.951 148.393 333.206 151.612 333.391L155.426 333.61L155.626 345.045L155.826 356.48H157.623H159.421V344.864V333.247H163.416C166.926 333.247 167.411 333.072 167.411 331.795C167.411 330.415 166.926 330.343 157.605 330.343C148.371 330.343 147.799 330.426 147.799 331.757ZM218.256 343.412V356.48H220.072C221.857 356.48 221.888 356.384 221.888 350.672V344.864H228.425C234.435 344.864 234.962 344.749 234.962 343.44C234.962 342.15 234.364 341.997 228.606 341.806L222.251 341.597V337.603V333.61L228.969 333.401C235.09 333.212 235.688 333.066 235.688 331.768C235.688 330.432 235.149 330.343 226.972 330.343H218.256V343.412ZM314.861 343.412V356.48H323.577H332.294V353.213V349.946H327.572H322.851V340.145V330.343H318.856H314.861V343.412ZM368.612 343.412V356.48H372.607H376.601V352.487C376.601 349.028 376.789 348.494 378.001 348.494C378.991 348.494 379.935 349.661 381.229 352.487L383.058 356.48H387.094C389.313 356.48 391.129 356.324 391.129 356.133C391.129 355.942 390.248 353.99 389.17 351.794L387.211 347.803L388.824 346.086C390.979 343.794 391.854 340.455 391.135 337.27C389.889 331.745 386.879 330.343 376.262 330.343H368.612V343.412ZM399.74 343.412L394.938 356.48H399.129C402.993 356.48 403.355 356.339 403.775 354.665C404.207 352.947 404.499 352.85 409.288 352.85C414.076 352.85 414.368 352.947 414.8 354.665C415.216 356.321 415.6 356.48 419.172 356.48C421.326 356.48 423.094 356.236 423.101 355.936C423.107 355.636 421.077 349.755 418.589 342.867L414.064 330.343H409.303H404.542L399.74 343.412ZM427.446 343.503V356.663L435.618 356.337C441.255 356.113 444.495 355.642 446.064 354.82C454.439 350.431 455.308 338.752 447.684 333.062C445.119 331.148 441.173 330.381 433.802 330.361L427.446 330.343V343.503ZM500.809 333.61V336.877H504.44H508.072V346.679V356.48H511.704H515.336V346.679V336.877H518.967H522.599V333.61V330.343H511.704H500.809V333.61ZM527.684 343.412V356.48H537.49H547.295V353.213V349.946H541.485C536.158 349.946 535.674 349.825 535.674 348.494C535.674 347.171 536.158 347.042 541.121 347.042H546.569V343.775V340.508H541.121C535.795 340.508 535.674 340.467 535.674 338.693C535.674 336.908 535.77 336.877 541.485 336.877H547.295V333.61V330.343H537.49H527.684V343.412ZM582.887 343.412V356.48H586.882H590.877V351.363V346.247L595.416 346.462L599.956 346.679L600.171 351.58L600.386 356.48H603.985H607.583V343.412V330.343H603.951H600.319V335.062V339.782H595.598H590.877V335.062V330.343H586.882H582.887V343.412ZM614.12 343.412V356.48H618.115H622.11V349.407V342.334L626.842 349.407L631.575 356.48H635.195H638.816V343.412V330.343H635.212H631.607L631.399 337.059L631.19 343.775L626.571 337.059L621.951 330.343H618.036H614.12V343.412ZM645.354 343.412V356.48H649.348H653.343V343.412V330.343H649.348H645.354V343.412ZM691.005 343.412L686.204 356.48H690.395C694.259 356.48 694.622 356.339 695.044 354.665C695.472 352.947 695.77 352.85 700.557 352.85C705.343 352.85 705.634 352.947 706.07 354.665C706.484 356.321 706.869 356.48 710.442 356.48C712.592 356.48 714.365 356.236 714.372 355.936C714.379 355.636 712.345 349.755 709.854 342.867L705.336 330.343H700.571H695.814L691.005 343.412ZM718.716 343.412V356.48H727.432H736.148V353.213V349.946H731.427H726.706V340.145V330.343H722.711H718.716V343.412ZM753.595 339.237C753.617 349.685 754.786 353.358 758.789 355.5C762.036 357.237 769.793 357.255 773.003 355.533C777.289 353.236 777.885 351.488 778.168 340.36L778.415 330.343H774.376H770.331L770.127 339.573C769.924 348.802 769.924 348.804 767.926 349.919C766.132 350.923 765.725 350.923 763.931 349.919C761.934 348.804 761.934 348.802 761.73 339.573L761.527 330.343H757.554H753.581L753.595 339.237ZM784.814 343.412V356.48H788.809H792.804V349.407V342.334L797.533 349.407L802.268 356.48H805.886H809.51V343.412V330.343H805.907H802.298L802.094 337.059L801.883 343.775L797.264 337.059L792.644 330.343H788.729H784.814V343.412ZM816.774 343.412V356.48H820.769H824.764V343.412V330.343H820.769H816.774V343.412ZM832.637 343.379L837.453 356.48H842.211H846.976L851.501 343.956C853.985 337.068 856.019 331.171 856.012 330.851C856.004 330.532 854.145 330.369 851.886 330.488L847.782 330.706L845.232 338.874C843.831 343.367 842.472 347.042 842.211 347.042C841.949 347.042 840.562 343.367 839.131 338.874L836.516 330.706L832.173 330.492L827.822 330.278L832.637 343.379ZM860.355 343.412V356.48H870.161H879.967V353.213V349.946H874.156C868.832 349.946 868.345 349.825 868.345 348.494C868.345 347.171 868.832 347.042 873.793 347.042H879.24V343.775V340.508H873.793C868.469 340.508 868.345 340.467 868.345 338.693C868.345 336.908 868.44 336.877 874.156 336.877H879.967V333.61V330.343H870.161H860.355V343.412ZM885.778 343.412V356.48H889.773H893.768V352.487C893.768 349.028 893.956 348.494 895.169 348.494C896.157 348.494 897.102 349.661 898.394 352.487L900.225 356.48H904.256C906.479 356.48 908.295 356.324 908.295 356.133C908.295 355.942 907.416 353.99 906.334 351.794L904.38 347.803L905.992 346.086C908.142 343.794 909.021 340.455 908.302 337.27C907.053 331.745 904.046 330.343 893.426 330.343H885.778V343.412ZM940.981 343.412V356.48H944.976H948.971V343.412V330.343H944.976H940.981V343.412ZM953.329 333.61V336.877H956.961H960.592V346.679V356.48H964.224H967.856V346.679V336.877H971.488H975.12V333.61V330.343H964.224H953.329V333.61ZM978.025 330.746C978.025 330.968 980.146 334.63 982.746 338.884C987.337 346.401 987.468 346.759 987.468 351.55V356.48H991.099H994.731L994.753 351.217C994.775 346.041 994.855 345.826 999.423 338.33L1004.07 330.706L999.961 330.483C997.702 330.361 995.755 330.524 995.646 330.846C995.537 331.169 994.433 333.193 993.199 335.344L990.954 339.256L988.441 334.8L985.928 330.343H981.976C979.805 330.343 978.025 330.525 978.025 330.746ZM202.348 334.084C203.386 334.469 204.939 336.035 205.798 337.564C209.876 344.817 205.509 353.812 197.959 353.708C192.431 353.631 189.201 349.836 189.201 343.412C189.201 339.209 190.513 336.161 193.031 334.511C195.915 332.623 198.136 332.521 202.348 334.084ZM86.0479 335.052C87.9422 336.766 87.919 339.914 85.9999 341.65C84.8988 342.646 83.3676 343.022 80.3707 343.033L76.2529 343.049L76.03 339.142C75.6987 333.336 75.9566 333.013 80.6111 333.398C83.0545 333.601 85.1472 334.238 86.0479 335.052ZM136.893 335.052C138.627 336.621 138.808 339.952 137.244 341.516C135.946 342.813 132.227 343.633 129.21 343.29C127.203 343.06 127.087 342.856 126.875 339.142C126.544 333.336 126.802 333.013 131.456 333.398C133.9 333.601 135.992 334.238 136.893 335.052ZM107.312 340.145C108.335 342.94 109.4 345.799 109.678 346.497C110.131 347.636 109.646 347.768 105.022 347.768C102.182 347.768 99.8595 347.475 99.8595 347.116C99.8595 345.482 104.494 333.967 104.944 334.482C105.223 334.802 106.289 337.349 107.312 340.145ZM300.152 338.76C302.401 341.275 302.361 345.568 300.065 348.235C296.261 352.656 289.439 349.637 289.439 343.533C289.439 336.99 295.969 334.081 300.152 338.76ZM353.903 338.76C356.151 341.275 356.111 345.568 353.816 348.235C350.011 352.656 343.189 349.637 343.189 343.533C343.189 336.99 349.72 334.081 353.903 338.76ZM475.204 338.76C477.453 341.275 477.413 345.568 475.117 348.235C471.313 352.656 464.491 349.637 464.491 343.533C464.491 336.99 471.021 334.081 475.204 338.76ZM383.502 339.419C383.502 341.502 383.352 341.606 380.052 341.818L376.601 342.04V339.419V336.798L380.052 337.019C383.352 337.231 383.502 337.335 383.502 339.419ZM442.909 338.338C445.38 340.28 446.017 343.415 444.527 346.294C443.265 348.733 440.955 349.946 437.568 349.946H435.436V343.412V336.877H438.244C439.957 336.877 441.775 337.447 442.909 338.338ZM900.668 339.419C900.668 341.502 900.515 341.606 897.218 341.818L893.768 342.04V339.419V336.798L897.218 337.019C900.515 337.231 900.668 337.335 900.668 339.419ZM410.541 340.689C410.996 342.386 411.589 344.347 411.858 345.045C412.277 346.131 411.907 346.316 409.317 346.316C406.774 346.316 406.343 346.111 406.65 345.045C406.851 344.347 407.415 342.386 407.904 340.689C408.392 338.992 408.998 337.603 409.252 337.603C409.505 337.603 410.085 338.992 410.541 340.689ZM701.806 340.689C702.264 342.386 702.859 344.347 703.128 345.045C703.549 346.131 703.179 346.316 700.586 346.316C698.043 346.316 697.615 346.111 697.92 345.045C698.123 344.347 698.683 342.386 699.169 340.689C699.663 338.992 700.266 337.603 700.52 337.603C700.775 337.603 701.356 338.992 701.806 340.689Z" fill="#231F21"/>
</svg>
